<mxfile host="app.diagrams.net" modified="2024-02-26T19:24:57.110Z" agent="Mozilla/5.0 (Windows NT 10.0; Win64; x64) AppleWebKit/537.36 (KHTML, like Gecko) Chrome/121.0.0.0 Safari/537.36 OPR/107.0.0.0" etag="mg5N3kCxogIg1ebUuVPD" version="23.1.7" type="device">
  <diagram name="Page-1" id="28jFLKpMy8AtALsHkNHY">
    <mxGraphModel dx="1614" dy="948" grid="1" gridSize="10" guides="1" tooltips="1" connect="1" arrows="1" fold="1" page="1" pageScale="1" pageWidth="850" pageHeight="1100" math="0" shadow="0">
      <root>
        <mxCell id="0" />
        <mxCell id="1" parent="0" />
        <mxCell id="RYsUkQSKPS4oboYajx5W-1" value="" style="rounded=0;whiteSpace=wrap;html=1;fillColor=#e1d5e7;strokeColor=#9673a6;" vertex="1" parent="1">
          <mxGeometry x="310" y="30" width="260" height="1020" as="geometry" />
        </mxCell>
        <mxCell id="RYsUkQSKPS4oboYajx5W-2" value="Pro.&lt;br&gt;Gin Player" style="shape=umlActor;verticalLabelPosition=bottom;verticalAlign=top;html=1;outlineConnect=0;" vertex="1" parent="1">
          <mxGeometry x="170" y="460" width="30" height="60" as="geometry" />
        </mxCell>
        <mxCell id="RYsUkQSKPS4oboYajx5W-3" value="&lt;font size=&quot;1&quot; style=&quot;&quot;&gt;&lt;u style=&quot;&quot;&gt;&lt;i style=&quot;font-size: 17px;&quot;&gt;Enviorment&lt;/i&gt;&lt;/u&gt;&lt;/font&gt;" style="text;html=1;align=center;verticalAlign=middle;resizable=0;points=[];autosize=1;strokeColor=none;fillColor=none;" vertex="1" parent="1">
          <mxGeometry x="385" width="110" height="30" as="geometry" />
        </mxCell>
        <mxCell id="RYsUkQSKPS4oboYajx5W-4" value="" style="group" vertex="1" connectable="0" parent="1">
          <mxGeometry x="340" y="340" width="200" height="730" as="geometry" />
        </mxCell>
        <mxCell id="RYsUkQSKPS4oboYajx5W-5" value="" style="rounded=0;whiteSpace=wrap;html=1;" vertex="1" parent="RYsUkQSKPS4oboYajx5W-4">
          <mxGeometry y="17.6" width="200" height="672.4" as="geometry" />
        </mxCell>
        <mxCell id="RYsUkQSKPS4oboYajx5W-6" value="&lt;b&gt;ACTION:&lt;/b&gt;&lt;br&gt;Observe discard pile." style="ellipse;whiteSpace=wrap;html=1;fillColor=#dae8fc;strokeColor=#6c8ebf;" vertex="1" parent="RYsUkQSKPS4oboYajx5W-4">
          <mxGeometry x="22.860000000000003" y="29.010989010989018" width="154.29" height="67.88571428571429" as="geometry" />
        </mxCell>
        <mxCell id="RYsUkQSKPS4oboYajx5W-7" value="&lt;b&gt;Step 1:&lt;/b&gt;&lt;br&gt;Winning hand checker." style="ellipse;whiteSpace=wrap;html=1;fillColor=#f8cecc;strokeColor=#b85450;" vertex="1" parent="RYsUkQSKPS4oboYajx5W-4">
          <mxGeometry x="30" y="140.8" width="140" height="49.2" as="geometry" />
        </mxCell>
        <mxCell id="RYsUkQSKPS4oboYajx5W-8" style="edgeStyle=orthogonalEdgeStyle;rounded=0;orthogonalLoop=1;jettySize=auto;html=1;exitX=0.5;exitY=1;exitDx=0;exitDy=0;entryX=0.5;entryY=0;entryDx=0;entryDy=0;" edge="1" parent="RYsUkQSKPS4oboYajx5W-4" source="RYsUkQSKPS4oboYajx5W-6" target="RYsUkQSKPS4oboYajx5W-7">
          <mxGeometry relative="1" as="geometry" />
        </mxCell>
        <mxCell id="RYsUkQSKPS4oboYajx5W-9" value="hand = pseudo_drawDP( hand )" style="edgeLabel;html=1;align=center;verticalAlign=middle;resizable=0;points=[];" vertex="1" connectable="0" parent="RYsUkQSKPS4oboYajx5W-8">
          <mxGeometry x="-0.125" relative="1" as="geometry">
            <mxPoint as="offset" />
          </mxGeometry>
        </mxCell>
        <mxCell id="RYsUkQSKPS4oboYajx5W-10" value="&lt;b&gt;Step 2:&lt;br&gt;&lt;/b&gt;Draw from discard pile" style="ellipse;whiteSpace=wrap;html=1;fillColor=#f8cecc;strokeColor=#b85450;" vertex="1" parent="RYsUkQSKPS4oboYajx5W-4">
          <mxGeometry x="20.02" y="230" width="160" height="52.4" as="geometry" />
        </mxCell>
        <mxCell id="RYsUkQSKPS4oboYajx5W-11" value="True" style="edgeStyle=orthogonalEdgeStyle;rounded=0;orthogonalLoop=1;jettySize=auto;html=1;exitX=1;exitY=1;exitDx=0;exitDy=0;entryX=0.5;entryY=0;entryDx=0;entryDy=0;curved=1;fillColor=#d5e8d4;strokeColor=#82b366;" edge="1" parent="RYsUkQSKPS4oboYajx5W-4" source="RYsUkQSKPS4oboYajx5W-7" target="RYsUkQSKPS4oboYajx5W-10">
          <mxGeometry x="-0.4373" y="-10" relative="1" as="geometry">
            <mxPoint as="offset" />
            <Array as="points">
              <mxPoint x="150" y="220" />
              <mxPoint x="100" y="220" />
            </Array>
          </mxGeometry>
        </mxCell>
        <mxCell id="RYsUkQSKPS4oboYajx5W-12" style="edgeStyle=orthogonalEdgeStyle;rounded=0;orthogonalLoop=1;jettySize=auto;html=1;exitX=0.5;exitY=1;exitDx=0;exitDy=0;entryX=0.5;entryY=0;entryDx=0;entryDy=0;" edge="1" parent="RYsUkQSKPS4oboYajx5W-4" source="RYsUkQSKPS4oboYajx5W-10" target="RYsUkQSKPS4oboYajx5W-24">
          <mxGeometry relative="1" as="geometry">
            <mxPoint x="100" y="352" as="targetPoint" />
          </mxGeometry>
        </mxCell>
        <mxCell id="RYsUkQSKPS4oboYajx5W-13" value="hand = drawDP( hand )" style="edgeLabel;html=1;align=center;verticalAlign=middle;resizable=0;points=[];" vertex="1" connectable="0" parent="RYsUkQSKPS4oboYajx5W-12">
          <mxGeometry x="-0.2357" y="1" relative="1" as="geometry">
            <mxPoint x="-1" y="1" as="offset" />
          </mxGeometry>
        </mxCell>
        <mxCell id="RYsUkQSKPS4oboYajx5W-14" style="rounded=0;orthogonalLoop=1;jettySize=auto;html=1;exitX=0;exitY=0.5;exitDx=0;exitDy=0;endArrow=none;endFill=0;" edge="1" parent="RYsUkQSKPS4oboYajx5W-4" source="RYsUkQSKPS4oboYajx5W-16">
          <mxGeometry relative="1" as="geometry">
            <mxPoint x="-140" y="160" as="targetPoint" />
          </mxGeometry>
        </mxCell>
        <mxCell id="RYsUkQSKPS4oboYajx5W-15" style="rounded=0;orthogonalLoop=1;jettySize=auto;html=1;exitX=1;exitY=0.5;exitDx=0;exitDy=0;endArrow=none;endFill=0;" edge="1" parent="RYsUkQSKPS4oboYajx5W-4" source="RYsUkQSKPS4oboYajx5W-16">
          <mxGeometry relative="1" as="geometry">
            <mxPoint x="340" y="160" as="targetPoint" />
          </mxGeometry>
        </mxCell>
        <mxCell id="RYsUkQSKPS4oboYajx5W-16" value="&lt;b&gt;ACTION:&lt;/b&gt;&lt;br&gt;&lt;font style=&quot;font-size: 12px;&quot;&gt;Pick 1 of the 7 cards in hand to replace. &lt;br&gt;&lt;/font&gt;" style="ellipse;whiteSpace=wrap;html=1;fillColor=#dae8fc;strokeColor=#6c8ebf;" vertex="1" parent="RYsUkQSKPS4oboYajx5W-4">
          <mxGeometry x="20.000000000000004" y="489.9972527472527" width="168.89" height="70.39999999999998" as="geometry" />
        </mxCell>
        <mxCell id="RYsUkQSKPS4oboYajx5W-17" value="" style="edgeStyle=orthogonalEdgeStyle;rounded=0;orthogonalLoop=1;jettySize=auto;html=1;exitX=0;exitY=1;exitDx=0;exitDy=0;curved=1;fillColor=#e51400;strokeColor=#B20000;entryX=0.5;entryY=0;entryDx=0;entryDy=0;" edge="1" parent="RYsUkQSKPS4oboYajx5W-4" source="RYsUkQSKPS4oboYajx5W-7" target="RYsUkQSKPS4oboYajx5W-16">
          <mxGeometry relative="1" as="geometry">
            <mxPoint x="-60" y="334.4" as="targetPoint" />
            <Array as="points">
              <mxPoint x="10" y="183" />
              <mxPoint x="10" y="470" />
              <mxPoint x="104" y="470" />
            </Array>
          </mxGeometry>
        </mxCell>
        <mxCell id="RYsUkQSKPS4oboYajx5W-18" value="False" style="edgeLabel;html=1;align=center;verticalAlign=middle;resizable=0;points=[];" vertex="1" connectable="0" parent="RYsUkQSKPS4oboYajx5W-17">
          <mxGeometry x="-0.5114" y="5" relative="1" as="geometry">
            <mxPoint x="8" y="-50" as="offset" />
          </mxGeometry>
        </mxCell>
        <mxCell id="RYsUkQSKPS4oboYajx5W-19" value="&lt;b&gt;Step 1:&lt;/b&gt;&lt;br&gt;End turn." style="ellipse;whiteSpace=wrap;html=1;fillColor=#f8cecc;strokeColor=#b85450;" vertex="1" parent="RYsUkQSKPS4oboYajx5W-4">
          <mxGeometry x="44.44" y="619.9991208791208" width="120" height="52.8" as="geometry" />
        </mxCell>
        <mxCell id="RYsUkQSKPS4oboYajx5W-20" style="edgeStyle=orthogonalEdgeStyle;rounded=0;orthogonalLoop=1;jettySize=auto;html=1;exitX=0.5;exitY=1;exitDx=0;exitDy=0;entryX=0.5;entryY=0;entryDx=0;entryDy=0;" edge="1" parent="RYsUkQSKPS4oboYajx5W-4" source="RYsUkQSKPS4oboYajx5W-16" target="RYsUkQSKPS4oboYajx5W-19">
          <mxGeometry relative="1" as="geometry" />
        </mxCell>
        <mxCell id="RYsUkQSKPS4oboYajx5W-21" value="hand = discard( card , hand )&lt;br&gt;discard = discard + card" style="edgeLabel;html=1;align=center;verticalAlign=middle;resizable=0;points=[];" vertex="1" connectable="0" parent="RYsUkQSKPS4oboYajx5W-20">
          <mxGeometry x="-0.1448" relative="1" as="geometry">
            <mxPoint as="offset" />
          </mxGeometry>
        </mxCell>
        <mxCell id="RYsUkQSKPS4oboYajx5W-22" style="edgeStyle=orthogonalEdgeStyle;rounded=0;orthogonalLoop=1;jettySize=auto;html=1;entryX=0.5;entryY=0;entryDx=0;entryDy=0;" edge="1" parent="RYsUkQSKPS4oboYajx5W-4" source="RYsUkQSKPS4oboYajx5W-24" target="RYsUkQSKPS4oboYajx5W-25">
          <mxGeometry relative="1" as="geometry" />
        </mxCell>
        <mxCell id="RYsUkQSKPS4oboYajx5W-23" value="hand = discard( card , hand )" style="edgeLabel;html=1;align=center;verticalAlign=middle;resizable=0;points=[];" vertex="1" connectable="0" parent="RYsUkQSKPS4oboYajx5W-22">
          <mxGeometry x="-0.3617" relative="1" as="geometry">
            <mxPoint as="offset" />
          </mxGeometry>
        </mxCell>
        <mxCell id="RYsUkQSKPS4oboYajx5W-24" value="&lt;b&gt;Step 3:&lt;/b&gt;&lt;br&gt;Discard the card preventing your hand from winning." style="ellipse;whiteSpace=wrap;html=1;fillColor=#f8cecc;strokeColor=#b85450;" vertex="1" parent="RYsUkQSKPS4oboYajx5W-4">
          <mxGeometry x="20" y="320" width="160" height="62.933333333333316" as="geometry" />
        </mxCell>
        <mxCell id="RYsUkQSKPS4oboYajx5W-25" value="&lt;b&gt;Step 4:&lt;/b&gt;&lt;br&gt;Declare victory." style="ellipse;whiteSpace=wrap;html=1;fillColor=#fff2cc;strokeColor=#d6b656;" vertex="1" parent="RYsUkQSKPS4oboYajx5W-4">
          <mxGeometry x="30" y="420.0000000000001" width="140" height="45.33" as="geometry" />
        </mxCell>
        <mxCell id="RYsUkQSKPS4oboYajx5W-26" style="edgeStyle=orthogonalEdgeStyle;rounded=0;orthogonalLoop=1;jettySize=auto;html=1;exitX=0.5;exitY=1;exitDx=0;exitDy=0;entryX=0.5;entryY=0;entryDx=0;entryDy=0;" edge="1" parent="1" source="RYsUkQSKPS4oboYajx5W-28" target="RYsUkQSKPS4oboYajx5W-31">
          <mxGeometry relative="1" as="geometry" />
        </mxCell>
        <mxCell id="RYsUkQSKPS4oboYajx5W-27" value="generatePiles( cards_52 )" style="edgeLabel;html=1;align=center;verticalAlign=middle;resizable=0;points=[];" vertex="1" connectable="0" parent="RYsUkQSKPS4oboYajx5W-26">
          <mxGeometry x="-0.231" y="1" relative="1" as="geometry">
            <mxPoint as="offset" />
          </mxGeometry>
        </mxCell>
        <mxCell id="RYsUkQSKPS4oboYajx5W-28" value="&lt;b&gt;AUTO ACTION:&lt;/b&gt;&lt;br&gt;Reset hands.&lt;b&gt;&amp;nbsp;&lt;/b&gt;&lt;br&gt;Generate new face-down, and discard piles.&amp;nbsp;" style="ellipse;whiteSpace=wrap;html=1;fillColor=#d5e8d4;strokeColor=#82b366;" vertex="1" parent="1">
          <mxGeometry x="360" y="40" width="160" height="80" as="geometry" />
        </mxCell>
        <mxCell id="RYsUkQSKPS4oboYajx5W-29" style="edgeStyle=orthogonalEdgeStyle;rounded=0;orthogonalLoop=1;jettySize=auto;html=1;exitX=1;exitY=0.5;exitDx=0;exitDy=0;curved=1;entryX=1;entryY=0.5;entryDx=0;entryDy=0;strokeWidth=2;" edge="1" parent="1" source="RYsUkQSKPS4oboYajx5W-25" target="RYsUkQSKPS4oboYajx5W-28">
          <mxGeometry relative="1" as="geometry">
            <Array as="points">
              <mxPoint x="560" y="80" />
            </Array>
            <mxPoint x="510.00000000000546" y="722.8" as="sourcePoint" />
          </mxGeometry>
        </mxCell>
        <mxCell id="RYsUkQSKPS4oboYajx5W-30" style="edgeStyle=orthogonalEdgeStyle;rounded=0;orthogonalLoop=1;jettySize=auto;html=1;exitX=0.5;exitY=1;exitDx=0;exitDy=0;entryX=0.5;entryY=0;entryDx=0;entryDy=0;" edge="1" parent="1" source="RYsUkQSKPS4oboYajx5W-31" target="RYsUkQSKPS4oboYajx5W-38">
          <mxGeometry relative="1" as="geometry">
            <mxPoint x="439.99000000000024" y="250" as="targetPoint" />
          </mxGeometry>
        </mxCell>
        <mxCell id="RYsUkQSKPS4oboYajx5W-31" value="&lt;b&gt;Step 1:&amp;nbsp;&lt;/b&gt;&lt;br&gt;Deal 7 cards to each player." style="ellipse;whiteSpace=wrap;html=1;fillColor=#f8cecc;strokeColor=#b85450;" vertex="1" parent="1">
          <mxGeometry x="380" y="160" width="120" height="60" as="geometry" />
        </mxCell>
        <mxCell id="RYsUkQSKPS4oboYajx5W-32" style="rounded=0;orthogonalLoop=1;jettySize=auto;html=1;exitX=0;exitY=0.5;exitDx=0;exitDy=0;dashed=1;dashPattern=8 8;" edge="1" parent="1" source="RYsUkQSKPS4oboYajx5W-38">
          <mxGeometry relative="1" as="geometry">
            <mxPoint x="200" y="450" as="targetPoint" />
            <mxPoint x="379.9899999999993" y="280" as="sourcePoint" />
          </mxGeometry>
        </mxCell>
        <mxCell id="RYsUkQSKPS4oboYajx5W-33" style="rounded=0;orthogonalLoop=1;jettySize=auto;html=1;exitX=1;exitY=0.5;exitDx=0;exitDy=0;dashed=1;dashPattern=8 8;" edge="1" parent="1" source="RYsUkQSKPS4oboYajx5W-38">
          <mxGeometry relative="1" as="geometry">
            <mxPoint x="680" y="450" as="targetPoint" />
            <mxPoint x="499.9899999999993" y="280" as="sourcePoint" />
          </mxGeometry>
        </mxCell>
        <mxCell id="RYsUkQSKPS4oboYajx5W-34" style="rounded=0;orthogonalLoop=1;jettySize=auto;html=1;endArrow=none;endFill=0;entryX=0;entryY=0.5;entryDx=0;entryDy=0;" edge="1" parent="1" target="RYsUkQSKPS4oboYajx5W-6">
          <mxGeometry relative="1" as="geometry">
            <mxPoint x="200" y="500" as="sourcePoint" />
            <mxPoint x="360" y="400" as="targetPoint" />
          </mxGeometry>
        </mxCell>
        <mxCell id="RYsUkQSKPS4oboYajx5W-35" value="AGENT" style="shape=umlActor;verticalLabelPosition=bottom;verticalAlign=top;html=1;outlineConnect=0;" vertex="1" parent="1">
          <mxGeometry x="680" y="460" width="30" height="60" as="geometry" />
        </mxCell>
        <mxCell id="RYsUkQSKPS4oboYajx5W-36" value="&lt;font size=&quot;1&quot; style=&quot;&quot;&gt;&lt;u style=&quot;&quot;&gt;&lt;i style=&quot;font-size: 17px;&quot;&gt;Discard Pile Action Queue&lt;/i&gt;&lt;/u&gt;&lt;/font&gt;" style="text;html=1;align=center;verticalAlign=middle;resizable=0;points=[];autosize=1;strokeColor=none;fillColor=none;" vertex="1" parent="1">
          <mxGeometry x="329.99" y="326.27" width="220" height="30" as="geometry" />
        </mxCell>
        <mxCell id="RYsUkQSKPS4oboYajx5W-37" style="rounded=0;orthogonalLoop=1;jettySize=auto;html=1;endArrow=none;endFill=0;exitX=1;exitY=0.5;exitDx=0;exitDy=0;" edge="1" parent="1" source="RYsUkQSKPS4oboYajx5W-6">
          <mxGeometry relative="1" as="geometry">
            <mxPoint x="600" y="520" as="sourcePoint" />
            <mxPoint x="680" y="500" as="targetPoint" />
          </mxGeometry>
        </mxCell>
        <mxCell id="RYsUkQSKPS4oboYajx5W-38" value="&lt;b&gt;Step 2:&lt;/b&gt;&lt;br&gt;Game begins.&lt;br&gt;1st ; coinflip&lt;br&gt;N+1 ; last winner" style="ellipse;whiteSpace=wrap;html=1;fillColor=#f8cecc;strokeColor=#b85450;" vertex="1" parent="1">
          <mxGeometry x="360" y="239.99999999999997" width="160" height="69.99" as="geometry" />
        </mxCell>
      </root>
    </mxGraphModel>
  </diagram>
</mxfile>
